<svg width="162" height="15" viewBox="0 0 162 15" fill="none" xmlns="http://www.w3.org/2000/svg">
<path d="M4.49601 12.16C4.00535 12.16 3.56268 12.128 3.16801 12.064C2.77335 12 2.42135 11.9147 2.11201 11.808C1.80268 11.7014 1.53601 11.584 1.31201 11.456C1.08801 11.328 0.901348 11.2054 0.752014 11.088V9.37604C0.912014 9.50404 1.12001 9.63738 1.37601 9.77604C1.64268 9.90404 1.93601 10.0214 2.25601 10.128C2.58668 10.2347 2.93868 10.3254 3.31201 10.4C3.68535 10.464 4.06935 10.496 4.46401 10.496C5.23201 10.496 5.84535 10.3734 6.30401 10.128C6.76268 9.88271 6.99201 9.47738 6.99201 8.91204C6.99201 8.61338 6.93335 8.36804 6.81601 8.17604C6.69868 7.98404 6.52801 7.82404 6.30401 7.69604C6.09068 7.55738 5.82401 7.44538 5.50401 7.36004C5.18401 7.26404 4.82668 7.16804 4.43201 7.07204C3.99468 6.96538 3.55735 6.83738 3.12001 6.68804C2.68268 6.53871 2.28801 6.34138 1.93601 6.09604C1.59468 5.84004 1.31201 5.52004 1.08801 5.13604C0.874681 4.74138 0.768014 4.24538 0.768014 3.64804C0.768014 2.59204 1.14668 1.78671 1.90401 1.23204C2.66135 0.666709 3.74935 0.384043 5.16801 0.384043C5.58401 0.384043 5.95201 0.410709 6.27201 0.464043C6.59201 0.506709 6.88001 0.565376 7.13601 0.640042C7.39201 0.704042 7.61068 0.778709 7.79201 0.864042C7.98401 0.938709 8.14935 1.01338 8.28801 1.08804V2.80004C7.52001 2.29871 6.49601 2.04804 5.21601 2.04804C4.32001 2.04804 3.67468 2.18138 3.28001 2.44804C2.89601 2.70404 2.70401 3.06138 2.70401 3.52004C2.70401 3.80804 2.76801 4.04804 2.89601 4.24004C3.02401 4.42138 3.20001 4.57604 3.42401 4.70404C3.64801 4.82138 3.90401 4.92271 4.19201 5.00804C4.48001 5.08271 4.78401 5.15738 5.10401 5.23204C5.55201 5.33871 6.00535 5.46138 6.46401 5.60004C6.92268 5.73871 7.33335 5.93604 7.69601 6.19204C8.06935 6.43738 8.37335 6.76271 8.60802 7.16804C8.84268 7.56271 8.96001 8.08004 8.96001 8.72004C8.96001 9.38138 8.83201 9.93071 8.57601 10.368C8.33068 10.8054 8.00001 11.1574 7.58401 11.424C7.16802 11.6907 6.69335 11.8827 6.16001 12C5.62668 12.1067 5.07201 12.16 4.49601 12.16Z" fill="white"/>
<path d="M11.4371 2.64004C11.0958 2.64004 10.8131 2.52804 10.5891 2.30404C10.3758 2.08004 10.2691 1.81338 10.2691 1.50404C10.2691 1.19471 10.3758 0.928042 10.5891 0.704042C10.8131 0.480042 11.0958 0.368042 11.4371 0.368042C11.7678 0.368042 12.0398 0.480042 12.2531 0.704042C12.4771 0.928042 12.5891 1.19471 12.5891 1.50404C12.5891 1.81338 12.4771 2.08004 12.2531 2.30404C12.0398 2.52804 11.7678 2.64004 11.4371 2.64004ZM12.3651 3.69604V12H10.5091V3.69604H12.3651Z" fill="white"/>
<path d="M22.0303 10.928C22.0303 11.536 21.9449 12.08 21.7743 12.56C21.6143 13.0507 21.3529 13.4667 20.9903 13.808C20.6276 14.1494 20.1583 14.4107 19.5823 14.592C19.0169 14.7734 18.3289 14.864 17.5183 14.864C17.0916 14.864 16.7183 14.8374 16.3983 14.784C16.0783 14.7414 15.8009 14.6827 15.5663 14.608C15.3316 14.544 15.1289 14.4694 14.9583 14.384C14.7983 14.3094 14.6596 14.2347 14.5423 14.16V12.624C14.7023 12.72 14.8729 12.8107 15.0543 12.896C15.2463 12.9814 15.4596 13.056 15.6943 13.12C15.9396 13.184 16.2116 13.232 16.5103 13.264C16.8089 13.3067 17.1503 13.328 17.5343 13.328C18.4516 13.328 19.1183 13.1574 19.5343 12.816C19.9609 12.4747 20.1743 11.8667 20.1743 10.992V10.16C19.9183 10.6187 19.5769 10.9867 19.1503 11.264C18.7236 11.5307 18.1956 11.664 17.5663 11.664C17.0863 11.664 16.6223 11.5787 16.1743 11.408C15.7369 11.2374 15.3476 10.9867 15.0063 10.656C14.6756 10.3147 14.4089 9.89338 14.2063 9.39204C14.0143 8.88004 13.9183 8.28804 13.9183 7.61604C13.9183 6.93338 14.0143 6.34138 14.2063 5.84004C14.4089 5.32804 14.6756 4.90138 15.0063 4.56004C15.3476 4.21871 15.7423 3.96271 16.1903 3.79204C16.6383 3.62138 17.1076 3.53604 17.5983 3.53604C18.2383 3.53604 18.7769 3.67471 19.2143 3.95204C19.6516 4.21871 20.0036 4.59204 20.2703 5.07204V5.02404C20.2703 4.83204 20.2809 4.60271 20.3023 4.33604C20.3343 4.05871 20.3663 3.84538 20.3983 3.69604H22.1103C22.0889 3.84538 22.0676 4.05871 22.0463 4.33604C22.0356 4.61338 22.0303 4.84271 22.0303 5.02404V10.928ZM18.0303 10.112C18.6596 10.112 19.1769 9.90938 19.5823 9.50404C19.9876 9.08804 20.1903 8.45871 20.1903 7.61604C20.1903 6.76271 19.9823 6.12804 19.5663 5.71204C19.1609 5.28538 18.6436 5.07204 18.0143 5.07204C17.7049 5.07204 17.4169 5.12538 17.1503 5.23204C16.8836 5.33871 16.6489 5.49871 16.4463 5.71204C16.2543 5.92538 16.0996 6.19204 15.9823 6.51204C15.8756 6.82138 15.8223 7.18938 15.8223 7.61604C15.8223 8.44804 16.0303 9.07204 16.4463 9.48804C16.8623 9.90404 17.3903 10.112 18.0303 10.112Z" fill="white"/>
<path d="M28.2134 5.07204C27.6694 5.07204 27.2214 5.18938 26.8694 5.42404C26.5174 5.64804 26.2294 5.94138 26.0054 6.30404V12H24.1494V3.69604H25.9094L25.9734 5.05604H26.0054C26.2294 4.61871 26.5654 4.25604 27.0134 3.96804C27.4721 3.68004 28.0534 3.53604 28.7574 3.53604C29.5681 3.53604 30.2294 3.75471 30.7414 4.19204C31.2641 4.62938 31.5254 5.29604 31.5254 6.19204V12H29.6534V6.38404C29.6534 5.90404 29.5254 5.56804 29.2694 5.37604C29.0134 5.17338 28.6614 5.07204 28.2134 5.07204Z" fill="white"/>
<path d="M37.9684 2.64004C37.6271 2.64004 37.3444 2.52804 37.1204 2.30404C36.9071 2.08004 36.8004 1.81338 36.8004 1.50404C36.8004 1.19471 36.9071 0.928042 37.1204 0.704042C37.3444 0.480042 37.6271 0.368042 37.9684 0.368042C38.2991 0.368042 38.5711 0.480042 38.7844 0.704042C39.0084 0.928042 39.1204 1.19471 39.1204 1.50404C39.1204 1.81338 39.0084 2.08004 38.7844 2.30404C38.5711 2.52804 38.2991 2.64004 37.9684 2.64004ZM38.8964 3.69604V12H37.0404V3.69604H38.8964Z" fill="white"/>
<path d="M45.0415 5.07204C44.4975 5.07204 44.0495 5.18938 43.6975 5.42404C43.3455 5.64804 43.0575 5.94138 42.8335 6.30404V12H40.9775V3.69604H42.7375L42.8015 5.05604H42.8335C43.0575 4.61871 43.3935 4.25604 43.8415 3.96804C44.3002 3.68004 44.8815 3.53604 45.5855 3.53604C46.3962 3.53604 47.0575 3.75471 47.5695 4.19204C48.0922 4.62938 48.3535 5.29604 48.3535 6.19204V12H46.4815V6.38404C46.4815 5.90404 46.3535 5.56804 46.0975 5.37604C45.8415 5.17338 45.4895 5.07204 45.0415 5.07204Z" fill="white"/>
<path d="M63.5005 12H60.8445L59.2605 6.03204L57.6605 12H55.0365L53.2125 3.69604H55.1165L56.5245 10.512L58.3965 3.69604H60.3325L62.1565 10.464L63.5645 3.69604H65.3245L63.5005 12Z" fill="white"/>
<path d="M67.7028 2.64004C67.3614 2.64004 67.0788 2.52804 66.8548 2.30404C66.6414 2.08004 66.5348 1.81338 66.5348 1.50404C66.5348 1.19471 66.6414 0.928042 66.8548 0.704042C67.0788 0.480042 67.3614 0.368042 67.7028 0.368042C68.0334 0.368042 68.3054 0.480042 68.5188 0.704042C68.7428 0.928042 68.8548 1.19471 68.8548 1.50404C68.8548 1.81338 68.7428 2.08004 68.5188 2.30404C68.3054 2.52804 68.0334 2.64004 67.7028 2.64004ZM68.6308 3.69604V12H66.7748V3.69604H68.6308Z" fill="white"/>
<path d="M75.1759 11.744C74.9839 11.8614 74.7439 11.9574 74.4559 12.032C74.1679 12.1174 73.8372 12.16 73.4639 12.16C73.0159 12.16 72.6372 12.1014 72.3279 11.984C72.0292 11.856 71.7839 11.6854 71.5919 11.472C71.3999 11.2587 71.2612 11.0134 71.1759 10.736C71.0906 10.448 71.0479 10.144 71.0479 9.82404V5.20004H70.0559V3.69604H71.0479V1.95204H72.9039V3.69604H75.2879V5.20004H72.9039V9.61604C72.9039 9.95738 72.9839 10.208 73.1439 10.368C73.3146 10.528 73.5919 10.608 73.9759 10.608C74.2319 10.608 74.4559 10.5707 74.6479 10.496C74.8399 10.4214 75.0159 10.32 75.1759 10.192V11.744Z" fill="white"/>
<path d="M80.9634 5.07204C80.4194 5.07204 79.9714 5.18938 79.6194 5.42404C79.2674 5.64804 78.9794 5.94138 78.7554 6.30404V12H76.8994V0.528043H78.7554V3.60004L78.7394 5.05604H78.7554C78.9901 4.62938 79.3314 4.27204 79.7794 3.98404C80.2274 3.68538 80.8034 3.53604 81.5074 3.53604C82.3181 3.53604 82.9794 3.75471 83.4914 4.19204C84.0141 4.62938 84.2754 5.29604 84.2754 6.19204V12H82.4034V6.38404C82.4034 5.90404 82.2754 5.56804 82.0194 5.37604C81.7634 5.17338 81.4114 5.07204 80.9634 5.07204Z" fill="white"/>
<path d="M94.6704 7.12004V12H92.7184V7.13604L88.8944 0.528043H91.0704L93.8064 5.45604L96.5904 0.528043H98.4624L94.6704 7.12004Z" fill="white"/>
<path d="M103.574 10.544C103.489 10.736 103.371 10.928 103.222 11.12C103.083 11.312 102.907 11.488 102.694 11.648C102.491 11.7974 102.246 11.92 101.958 12.016C101.67 12.112 101.334 12.16 100.95 12.16C100.587 12.16 100.251 12.1067 99.942 12C99.6327 11.904 99.3607 11.7547 99.126 11.552C98.902 11.3494 98.7207 11.0987 98.582 10.8C98.454 10.4907 98.39 10.1387 98.39 9.74404C98.39 8.83738 98.726 8.16004 99.398 7.71204C100.07 7.25338 101.019 7.02404 102.246 7.02404H103.51V6.51204C103.51 5.96804 103.371 5.59471 103.094 5.39204C102.817 5.17871 102.358 5.07204 101.718 5.07204C101.174 5.07204 100.662 5.15204 100.182 5.31204C99.7127 5.46138 99.2967 5.63738 98.934 5.84004V4.28804C99.2647 4.10671 99.702 3.93604 100.246 3.77604C100.79 3.61604 101.382 3.53604 102.022 3.53604C103.089 3.53604 103.91 3.76004 104.486 4.20804C105.073 4.64538 105.366 5.34938 105.366 6.32004V10.656C105.366 10.752 105.366 10.864 105.366 10.992C105.377 11.1094 105.382 11.232 105.382 11.36C105.393 11.488 105.403 11.6107 105.414 11.728C105.425 11.8347 105.435 11.9254 105.446 12H103.734C103.702 11.8507 103.67 11.6427 103.638 11.376C103.617 11.1094 103.601 10.8694 103.59 10.656L103.574 10.544ZM101.462 10.72C101.857 10.72 102.182 10.64 102.438 10.48C102.705 10.3094 102.918 10.1174 103.078 9.90404C103.238 9.68004 103.35 9.46138 103.414 9.24804C103.478 9.03471 103.51 8.88538 103.51 8.80004V8.24004H102.358C101.622 8.24004 101.083 8.35738 100.742 8.59204C100.401 8.81604 100.23 9.13604 100.23 9.55204C100.23 9.91471 100.331 10.2027 100.534 10.416C100.747 10.6187 101.057 10.72 101.462 10.72Z" fill="white"/>
<path d="M111.432 5.07204C110.888 5.07204 110.44 5.18938 110.088 5.42404C109.736 5.64804 109.448 5.94138 109.224 6.30404V12H107.368V3.69604H109.128L109.192 5.05604H109.224C109.448 4.61871 109.784 4.25604 110.232 3.96804C110.691 3.68004 111.272 3.53604 111.976 3.53604C112.787 3.53604 113.448 3.75471 113.96 4.19204C114.483 4.62938 114.744 5.29604 114.744 6.19204V12H112.872V6.38404C112.872 5.90404 112.744 5.56804 112.488 5.37604C112.232 5.17338 111.88 5.07204 111.432 5.07204Z" fill="white"/>
<path d="M122.68 10.448C122.413 10.9707 122.056 11.3867 121.608 11.696C121.16 12.0054 120.6 12.16 119.928 12.16C119.437 12.16 118.968 12.0747 118.52 11.904C118.072 11.7227 117.677 11.456 117.336 11.104C116.994 10.7414 116.722 10.2934 116.52 9.76004C116.317 9.21604 116.216 8.57604 116.216 7.84004C116.216 7.11471 116.317 6.48538 116.52 5.95204C116.722 5.40804 116.994 4.96004 117.336 4.60804C117.688 4.24538 118.088 3.97871 118.536 3.80804C118.984 3.62671 119.453 3.53604 119.944 3.53604C120.562 3.53604 121.09 3.65871 121.528 3.90404C121.976 4.14938 122.338 4.49604 122.616 4.94404V0.528043H124.456V12H122.776L122.68 10.448ZM120.36 10.608C120.68 10.608 120.973 10.5547 121.24 10.448C121.517 10.3307 121.757 10.16 121.96 9.93604C122.173 9.70138 122.338 9.41338 122.456 9.07204C122.573 8.72004 122.632 8.30938 122.632 7.84004C122.632 7.37071 122.573 6.96538 122.456 6.62404C122.338 6.27204 122.178 5.98404 121.976 5.76004C121.773 5.52538 121.533 5.35471 121.256 5.24804C120.978 5.13071 120.68 5.07204 120.36 5.07204C119.709 5.07204 119.17 5.30671 118.744 5.77604C118.328 6.24538 118.12 6.93338 118.12 7.84004C118.12 8.76804 118.328 9.46138 118.744 9.92004C119.16 10.3787 119.698 10.608 120.36 10.608Z" fill="white"/>
<path d="M133.5 11.392C133.382 11.4667 133.238 11.552 133.068 11.648C132.897 11.7334 132.694 11.8134 132.46 11.888C132.225 11.9627 131.953 12.0267 131.644 12.08C131.334 12.1334 130.982 12.16 130.588 12.16C129.062 12.16 127.921 11.7814 127.164 11.024C126.417 10.2667 126.044 9.20538 126.044 7.84004C126.044 7.16804 126.145 6.56538 126.348 6.03204C126.55 5.49871 126.833 5.05071 127.196 4.68804C127.558 4.31471 127.99 4.03204 128.492 3.84004C128.993 3.63738 129.542 3.53604 130.14 3.53604C130.758 3.53604 131.313 3.63738 131.804 3.84004C132.305 4.04271 132.716 4.34671 133.036 4.75204C133.356 5.15738 133.574 5.65871 133.692 6.25604C133.82 6.85338 133.825 7.55204 133.708 8.35204H127.964C128.038 9.10938 128.289 9.68004 128.716 10.064C129.142 10.4374 129.809 10.624 130.716 10.624C131.377 10.624 131.926 10.544 132.364 10.384C132.812 10.2134 133.19 10.0374 133.5 9.85604V11.392ZM130.14 5.00804C129.596 5.00804 129.137 5.17338 128.764 5.50404C128.39 5.83471 128.145 6.32538 128.028 6.97604H131.932C131.953 6.30404 131.804 5.80804 131.484 5.48804C131.164 5.16804 130.716 5.00804 130.14 5.00804Z" fill="white"/>
<path d="M138.156 8.94404L136.14 12H134.316L137.244 7.68004L134.604 3.69604H136.716L138.54 6.43204L140.316 3.69604H142.14L139.452 7.71204L142.3 12H140.188L138.156 8.94404Z" fill="white"/>
<path d="M149.137 0.528043V12H147.201V0.528043H149.137Z" fill="white"/>
<path d="M151.591 0.528043H155.463C156.274 0.528043 157.026 0.618709 157.719 0.800042C158.423 0.981376 159.031 1.28004 159.543 1.69604C160.066 2.11204 160.471 2.66138 160.759 3.34404C161.058 4.02671 161.207 4.86938 161.207 5.87204C161.207 6.88538 161.058 7.77604 160.759 8.54404C160.471 9.30138 160.061 9.93604 159.527 10.448C159.005 10.96 158.381 11.3494 157.655 11.616C156.941 11.872 156.157 12 155.303 12H151.591V0.528043ZM153.527 2.20804V10.336H155.367C155.933 10.336 156.445 10.2507 156.903 10.08C157.373 9.90938 157.773 9.64804 158.103 9.29604C158.445 8.94404 158.706 8.49604 158.887 7.95204C159.079 7.39738 159.175 6.74138 159.175 5.98404C159.175 5.23738 159.085 4.62404 158.903 4.14404C158.722 3.65338 158.466 3.26404 158.135 2.97604C157.815 2.68804 157.431 2.49071 156.983 2.38404C156.535 2.26671 156.05 2.20804 155.527 2.20804H153.527Z" fill="white"/>
</svg>
