<svg width="135" height="15" viewBox="0 0 135 15" fill="none" xmlns="http://www.w3.org/2000/svg">
<path d="M0.396057 0.528002H4.30006C5.66539 0.528002 6.70539 0.741335 7.42006 1.168C8.13472 1.59467 8.49206 2.31467 8.49206 3.328C8.49206 3.744 8.43339 4.10667 8.31606 4.416C8.19872 4.71467 8.02806 4.976 7.80406 5.2C7.59072 5.41333 7.32939 5.58933 7.02006 5.728C6.71072 5.86667 6.36939 5.97334 5.99606 6.048C6.95606 6.16534 7.68139 6.42667 8.17206 6.832C8.66272 7.23733 8.90806 7.856 8.90806 8.688C8.90806 9.28534 8.79072 9.79734 8.55606 10.224C8.32139 10.64 7.99606 10.9813 7.58006 11.248C7.16406 11.504 6.67339 11.696 6.10806 11.824C5.54272 11.9413 4.92939 12 4.26806 12H0.396057V0.528002ZM2.33206 2.208V5.264H4.39606C5.03606 5.264 5.55339 5.13067 5.94806 4.864C6.34272 4.58667 6.54006 4.15467 6.54006 3.568C6.54006 3.03467 6.35872 2.67733 5.99606 2.496C5.64406 2.304 5.14272 2.208 4.49206 2.208H2.33206ZM2.33206 6.928V10.336H4.46006C4.82272 10.336 5.15339 10.3093 5.45206 10.256C5.75072 10.192 6.00672 10.096 6.22006 9.968C6.43339 9.82934 6.59872 9.65333 6.71606 9.44C6.83339 9.216 6.89206 8.944 6.89206 8.624C6.89206 7.99467 6.68406 7.55734 6.26806 7.312C5.86272 7.056 5.20672 6.928 4.30006 6.928H2.33206Z" fill="black"/>
<path d="M14.2728 12.16C13.6861 12.16 13.1421 12.064 12.6408 11.872C12.1395 11.68 11.7021 11.4027 11.3288 11.04C10.9661 10.6667 10.6781 10.2133 10.4648 9.68C10.2621 9.14667 10.1608 8.53334 10.1608 7.84C10.1608 7.14667 10.2621 6.53334 10.4648 6C10.6781 5.46667 10.9661 5.01867 11.3288 4.656C11.7021 4.28267 12.1395 4.00533 12.6408 3.824C13.1421 3.632 13.6861 3.536 14.2728 3.536C14.8595 3.536 15.4035 3.632 15.9048 3.824C16.4061 4.00533 16.8435 4.28267 17.2168 4.656C17.5901 5.01867 17.8835 5.46667 18.0968 6C18.3101 6.53334 18.4168 7.14667 18.4168 7.84C18.4168 8.53334 18.3101 9.14667 18.0968 9.68C17.8835 10.2133 17.5901 10.6667 17.2168 11.04C16.8435 11.4027 16.4061 11.68 15.9048 11.872C15.4035 12.064 14.8595 12.16 14.2728 12.16ZM14.2728 10.608C14.9128 10.608 15.4408 10.384 15.8568 9.936C16.2835 9.488 16.4968 8.78934 16.4968 7.84C16.4968 6.90134 16.2835 6.208 15.8568 5.76C15.4408 5.30134 14.9128 5.072 14.2728 5.072C13.6435 5.072 13.1155 5.30134 12.6888 5.76C12.2728 6.208 12.0648 6.90134 12.0648 7.84C12.0648 8.78934 12.2728 9.488 12.6888 9.936C13.1155 10.384 13.6435 10.608 14.2728 10.608Z" fill="black"/>
<path d="M23.7137 2.704C23.2657 2.704 22.8764 2.64533 22.5457 2.528C22.2257 2.41067 21.9537 2.25067 21.7297 2.048C21.5163 1.83467 21.3563 1.58933 21.2497 1.312C21.143 1.024 21.0897 0.720001 21.0897 0.400002H22.7217C22.7217 0.773335 22.807 1.04533 22.9777 1.216C23.159 1.376 23.4043 1.456 23.7137 1.456C24.023 1.456 24.263 1.376 24.4337 1.216C24.6043 1.04533 24.6897 0.773335 24.6897 0.400002H26.3377C26.3377 0.720001 26.2843 1.024 26.1777 1.312C26.071 1.58933 25.9057 1.83467 25.6817 2.048C25.4683 2.25067 25.1964 2.41067 24.8657 2.528C24.535 2.64533 24.151 2.704 23.7137 2.704ZM21.8097 9.488L25.6497 3.696H27.4737V12H25.6337V6.24L21.8257 12H19.9697V3.696H21.8097V9.488Z" fill="black"/>
<path d="M33.2754 5.2V12H31.4194V5.2H28.9074V3.696H35.8354V5.2H33.2754Z" fill="black"/>
<path d="M39.0909 9.488L42.9309 3.696H44.7549V12H42.9149V6.24L39.1069 12H37.2509V3.696H39.0909V9.488Z" fill="black"/>
<path d="M54.1843 12.16C53.5123 12.16 52.9096 12.064 52.3763 11.872C51.843 11.6693 51.3896 11.3867 51.0163 11.024C50.643 10.6507 50.355 10.1973 50.1523 9.664C49.9496 9.13067 49.8483 8.52267 49.8483 7.84C49.8483 7.168 49.9496 6.56533 50.1523 6.032C50.355 5.49867 50.643 5.05067 51.0163 4.688C51.3896 4.31467 51.8483 4.032 52.3923 3.84C52.9363 3.63733 53.5443 3.536 54.2163 3.536C54.7923 3.536 55.2936 3.6 55.7203 3.728C56.1576 3.856 56.5043 4.016 56.7603 4.208V5.744C56.4296 5.53067 56.067 5.36533 55.6723 5.248C55.2883 5.13067 54.8403 5.072 54.3283 5.072C52.611 5.072 51.7523 5.99467 51.7523 7.84C51.7523 9.68534 52.595 10.608 54.2803 10.608C54.8243 10.608 55.2883 10.5493 55.6723 10.432C56.067 10.304 56.4296 10.144 56.7603 9.952V11.488C56.483 11.6693 56.1363 11.8293 55.7203 11.968C55.3043 12.096 54.7923 12.16 54.1843 12.16Z" fill="black"/>
<path d="M62.0973 4.128C62.0973 3.52 62.204 2.992 62.4173 2.544C62.6306 2.08534 62.9293 1.712 63.3133 1.424C63.6973 1.12534 64.156 0.901335 64.6893 0.752002C65.2333 0.602668 65.836 0.528002 66.4973 0.528002H70.2253V12H68.2733V7.584H66.4973L63.5693 12H61.3133L64.5453 7.296C63.7133 7.09333 63.0946 6.72533 62.6893 6.192C62.2946 5.648 62.0973 4.96 62.0973 4.128ZM68.2733 5.968V2.208H66.4813C65.756 2.208 65.1746 2.352 64.7373 2.64C64.3106 2.91733 64.0973 3.39733 64.0973 4.08C64.0973 4.752 64.2893 5.23733 64.6733 5.536C65.0573 5.824 65.6013 5.968 66.3053 5.968H68.2733Z" fill="black"/>
<path d="M77.8453 8.496H74.3413V12H72.4853V3.696H74.3413V6.992H77.8453V3.696H79.7013V12H77.8453V8.496Z" fill="black"/>
<path d="M81.5582 10.496C81.8035 10.2827 81.9955 9.98934 82.1342 9.616C82.2835 9.24267 82.4008 8.77867 82.4862 8.224C82.5715 7.65867 82.6355 7.00267 82.6782 6.256C82.7208 5.50934 82.7582 4.656 82.7902 3.696H88.8702V10.496H90.1182V14.368H88.5022L88.3582 12H82.6302L82.4862 14.368H80.8542V10.496H81.5582ZM87.0142 10.496V5.2H84.3902C84.3368 6.512 84.2462 7.6 84.1182 8.464C84.0008 9.31734 83.8035 9.99467 83.5262 10.496H87.0142Z" fill="black"/>
<path d="M98.2731 11.392C98.1557 11.4667 98.0117 11.552 97.8411 11.648C97.6704 11.7333 97.4677 11.8133 97.2331 11.888C96.9984 11.9627 96.7264 12.0267 96.4171 12.08C96.1077 12.1333 95.7557 12.16 95.3611 12.16C93.8357 12.16 92.6944 11.7813 91.9371 11.024C91.1904 10.2667 90.8171 9.20534 90.8171 7.84C90.8171 7.168 90.9184 6.56533 91.1211 6.032C91.3237 5.49867 91.6064 5.05067 91.9691 4.688C92.3317 4.31467 92.7637 4.032 93.2651 3.84C93.7664 3.63733 94.3157 3.536 94.9131 3.536C95.5317 3.536 96.0864 3.63733 96.5771 3.84C97.0784 4.04267 97.4891 4.34667 97.8091 4.752C98.1291 5.15733 98.3477 5.65867 98.4651 6.256C98.5931 6.85333 98.5984 7.552 98.4811 8.352H92.7371C92.8117 9.10933 93.0624 9.68 93.4891 10.064C93.9157 10.4373 94.5824 10.624 95.4891 10.624C96.1504 10.624 96.6997 10.544 97.1371 10.384C97.5851 10.2133 97.9637 10.0373 98.2731 9.856V11.392ZM94.9131 5.008C94.3691 5.008 93.9104 5.17334 93.5371 5.504C93.1637 5.83467 92.9184 6.32534 92.8011 6.976H96.7051C96.7264 6.304 96.5771 5.808 96.2571 5.488C95.9371 5.168 95.4891 5.008 94.9131 5.008Z" fill="black"/>
<path d="M102.78 8.624H102.06V12H100.204V3.696H102.06V7.12H102.844L105.484 3.696H107.436L104.3 7.696L107.564 12H105.372L102.78 8.624Z" fill="black"/>
<path d="M112.231 12.16C111.559 12.16 110.957 12.064 110.423 11.872C109.89 11.6693 109.437 11.3867 109.063 11.024C108.69 10.6507 108.402 10.1973 108.199 9.664C107.997 9.13067 107.895 8.52267 107.895 7.84C107.895 7.168 107.997 6.56533 108.199 6.032C108.402 5.49867 108.69 5.05067 109.063 4.688C109.437 4.31467 109.895 4.032 110.439 3.84C110.983 3.63733 111.591 3.536 112.263 3.536C112.839 3.536 113.341 3.6 113.767 3.728C114.205 3.856 114.551 4.016 114.807 4.208V5.744C114.477 5.53067 114.114 5.36533 113.719 5.248C113.335 5.13067 112.887 5.072 112.375 5.072C110.658 5.072 109.799 5.99467 109.799 7.84C109.799 9.68534 110.642 10.608 112.327 10.608C112.871 10.608 113.335 10.5493 113.719 10.432C114.114 10.304 114.477 10.144 114.807 9.952V11.488C114.53 11.6693 114.183 11.8293 113.767 11.968C113.351 12.096 112.839 12.16 112.231 12.16Z" fill="black"/>
<path d="M122.16 0.528002V12H120.224V0.528002H122.16Z" fill="black"/>
<path d="M124.615 0.528002H128.487C129.297 0.528002 130.049 0.618668 130.743 0.800001C131.447 0.981335 132.055 1.28 132.567 1.696C133.089 2.112 133.495 2.66133 133.783 3.344C134.081 4.02667 134.231 4.86933 134.231 5.872C134.231 6.88533 134.081 7.776 133.783 8.544C133.495 9.30133 133.084 9.936 132.551 10.448C132.028 10.96 131.404 11.3493 130.679 11.616C129.964 11.872 129.18 12 128.327 12H124.615V0.528002ZM126.551 2.208V10.336H128.391C128.956 10.336 129.468 10.2507 129.927 10.08C130.396 9.90934 130.796 9.648 131.127 9.296C131.468 8.944 131.729 8.496 131.911 7.952C132.103 7.39734 132.199 6.74133 132.199 5.984C132.199 5.23733 132.108 4.624 131.927 4.144C131.745 3.65334 131.489 3.264 131.159 2.976C130.839 2.688 130.455 2.49067 130.007 2.384C129.559 2.26667 129.073 2.208 128.551 2.208H126.551Z" fill="black"/>
</svg>
